# xmcd
#
# Track frame offsets:
#	150
#	32595
#	47834
#	70414
#	90276
#	108713
#	129379
#	157237
#	175024
#	203460
#	228565
#	249710
#	267240
#	287880
#	311171
#	334282
#
# Disc length: 4763 seconds
#
# Revision: 0
# Processed by: cddbd v1.5.2PL0 Copyright (c) Steve Scherf et al.
# Submitted via: EasyCDDAExtractor 8.2.3.1
#
DISCID=eb129910
DTITLE=Various Artist - Akella Presents - Modern Electric Blues - vol.26  CD2
DYEAR=2011
DGENRE=Blues
TTITLE0=STORM WARNING - On the Road
TTITLE1=STEVE MILLER BAND - Tramp
TTITLE2=JOHN CAMPBELL - Wild Streak
TTITLE3=The BEAT DADDYS - She Goes Down
TTITLE4=The ROCKY ATHAS GROUP - Bluesville
TTITLE5=SCOTT ELLISON - Where You Stand With Me
TTITLE6=RICK FOWLER - Walk Softly
TTITLE7=DOYLE BRAMHALL - Day Come Down
TTITLE8=TOM PRINCIPATO - Stranger's Eyes
TTITLE9=DAVID GOGO - Reap What You Sow
TTITLE10=COYOTE KINGS - Love For The Blues
TTITLE11=DANNY BRYANT - Follow On
TTITLE12=DAVE WALKER - Nine Below Zero
TTITLE13=BOWES and MORLEY - Come Together In The Morning
TTITLE14=DUKE ROBILLARD - This Dream (Still Coming True)
TTITLE15=TAB BENOIT - Shelter Me
EXTD=
EXTT0=
EXTT1=
EXTT2=
EXTT3=
EXTT4=
EXTT5=
EXTT6=
EXTT7=
EXTT8=
EXTT9=
EXTT10=
EXTT11=
EXTT12=
EXTT13=
EXTT14=
EXTT15=
PLAYORDER=
